<?xml version="1.0" standalone="no"?>
<!DOCTYPE svg PUBLIC "-//W3C//DTD SVG 20010904//EN"
 "http://www.w3.org/TR/2001/REC-SVG-20010904/DTD/svg10.dtd">
<svg version="1.0" xmlns="http://www.w3.org/2000/svg"
 width="33.000000pt" height="30.000000pt" viewBox="0 0 33.000000 30.000000"
 preserveAspectRatio="xMidYMid meet">
<metadata>
Created by potrace 1.10, written by Peter Selinger 2001-2011
</metadata>
<g transform="translate(0.000000,30.000000) scale(0.050000,-0.050000)"
fill="#000000" stroke="none">
<path d="M169 422 c-87 -101 -161 -190 -164 -198 -2 -8 69 -62 158 -121 l161
-106 169 112 169 113 -80 94 c-45 52 -120 138 -167 192 l-87 98 -159 -184z
m151 -132 l0 -230 -127 84 -127 84 122 145 c67 80 124 146 127 146 3 1 5 -103
5 -229z m223 0 l55 -60 -129 -85 -129 -85 0 230 0 230 74 -85 c41 -47 99 -112
129 -145z"/>
</g>
</svg>
